# xmcd CD database file
#
# Track frame offsets:
#	150
#	25410
#	44667
#	59832
#	77387
#	97742
#	126367
#	143187
#	164355
#	186942
#	212482
#
# Disc length: 3060 seconds
#
# Revision: 0
# Processed by: cddbd v1.5.1PL0 Copyright (c) Steve Scherf et al.
# Submitted via: CDex 1.51
#
DISCID=9a0bf20b
DTITLE=TUNNELS - ほのちゃんにはががえた(disk-2)
DYEAR=1990
DGENRE=JPop
TTITLE0=TAKE OF THE DEVIL
TTITLE1=東京不倫倶楽部
TTITLE2=キスをしたいよ
TTITLE3=ガンバッタ・マックーサ
TTITLE4=僕たちのクリスマスイブ
TTITLE5=７月３１日に生まれて
TTITLE6=結婚式に呼んでください
TTITLE7=バリケードのない荒野
TTITLE8=LAST DANCEにはまだはやい
TTITLE9=青春〜あゝ中州が泣いとーぜ〜
TTITLE10=あした元気になーれ
EXTD=YEAR: 1990
EXTT0=
EXTT1=
EXTT2=
EXTT3=
EXTT4=
EXTT5=
EXTT6=
EXTT7=
EXTT8=
EXTT9=
EXTT10=
PLAYORDER=
